<svg width="1134" height="1134" xmlns="http://www.w3.org/2000/svg" xmlns:xlink="http://www.w3.org/1999/xlink" overflow="hidden"><g><rect x="0" y="0" width="1134" height="1134" fill="#FFFFFF"/><g><g><g><path d="M358.5 119.5C416.248 119.5 463.062 166.314 463.062 224.062 463.062 281.811 416.248 328.625 358.5 328.625 300.752 328.625 253.937 281.811 253.937 224.062 253.995 166.338 300.775 119.558 358.5 119.5M358.5 104.562C292.502 104.562 239 158.064 239 224.062 239 290.061 292.502 343.562 358.5 343.562 424.498 343.562 478 290.061 478 224.062 478 158.064 424.498 104.562 358.5 104.562Z" stroke="#0070C0" stroke-width="36.6283" fill="none" transform="matrix(1.00976 0 0 1 493 32)"/><path d="M597.5 612.437 582.562 612.437 582.562 496.672C582.207 480.807 574.733 465.945 562.21 456.199 529.454 431.065 491.95 412.821 451.956 402.566 421.676 393.248 390.182 388.465 358.5 388.375 326.828 388.925 295.371 393.697 264.961 402.566 225.385 414.157 188.047 432.337 154.513 456.341 142.117 466.098 134.749 480.899 134.437 496.672L134.437 612.437 119.5 612.437 119.5 496.672C119.87 476.272 129.406 457.123 145.461 444.533 180.501 419.379 219.543 400.334 260.936 388.203 292.655 378.961 325.466 373.995 358.5 373.437 391.602 373.519 424.51 378.5 456.154 388.218 498.05 399.013 537.323 418.185 571.606 444.577 587.629 457.167 597.138 476.297 597.5 496.672Z" stroke="#0070C0" stroke-width="36.6283" fill="none" transform="matrix(1.00976 0 0 1 493 32)"/></g></g></g><path d="M86 844 247.634 730 247.634 820.732 852.366 820.732 852.366 730 1014 844 852.366 958 852.366 867.268 247.634 867.268 247.634 958Z" fill="#0070C0" fill-rule="evenodd"/><g><g><g><path d="M358.5 119.5C416.248 119.5 463.062 166.314 463.062 224.062 463.062 281.811 416.248 328.625 358.5 328.625 300.752 328.625 253.937 281.811 253.937 224.062 253.995 166.338 300.775 119.558 358.5 119.5M358.5 104.562C292.502 104.562 239 158.064 239 224.062 239 290.061 292.502 343.562 358.5 343.562 424.498 343.562 478 290.061 478 224.062 478 158.064 424.498 104.562 358.5 104.562Z" stroke="#0070C0" stroke-width="36.6283" fill="#0070C0" transform="matrix(1.00976 0 0 1 -73 127)"/><path d="M597.5 612.437 582.562 612.437 582.562 496.672C582.207 480.807 574.733 465.945 562.21 456.199 529.454 431.065 491.95 412.821 451.956 402.566 421.676 393.248 390.182 388.465 358.5 388.375 326.828 388.925 295.371 393.697 264.961 402.566 225.385 414.157 188.047 432.337 154.513 456.341 142.117 466.098 134.749 480.899 134.437 496.672L134.437 612.437 119.5 612.437 119.5 496.672C119.87 476.272 129.406 457.123 145.461 444.533 180.501 419.379 219.543 400.334 260.936 388.203 292.655 378.961 325.466 373.995 358.5 373.437 391.602 373.519 424.51 378.5 456.154 388.218 498.05 399.013 537.323 418.185 571.606 444.577 587.629 457.167 597.138 476.297 597.5 496.672Z" stroke="#0070C0" stroke-width="36.6283" fill="#0070C0" transform="matrix(1.00976 0 0 1 -73 127)"/></g></g></g></g></svg>